P2
4 4
255

150 150 150 150 
170 170 170 160
100 110 130 120 
080 080 090 110
